<svg viewBox="0 0 200 200" xmlns="http://www.w3.org/2000/svg">
  <path fill="#FF0066" d="M36.9,-52.1C50.1,-56.3,64.6,-51,61.5,-40.7C58.3,-30.5,37.5,-15.2,27.7,-5.7C17.8,3.8,18.9,7.7,19.6,13.8C20.4,20,20.9,28.5,17.5,27.3C14.2,26.2,7.1,15.5,1.2,13.5C-4.7,11.4,-9.5,18,-17,21.6C-24.5,25.1,-34.9,25.6,-33.6,21.5C-32.3,17.4,-19.4,8.7,-24,-2.6C-28.5,-13.9,-50.4,-27.8,-54.3,-36.5C-58.2,-45.2,-44.1,-48.6,-32.1,-45.1C-20,-41.6,-10,-31.2,0.9,-32.8C11.8,-34.4,23.7,-48,36.9,-52.1Z" transform="translate(100 100)" />
</svg>